<svg id="Calque_1" data-name="Calque 1" xmlns="http://www.w3.org/2000/svg" viewBox="0 0 1701 1417.36"><defs><style>.cls-1{fill:#00f8ff;}.cls-2{fill:#fff;}</style></defs><rect class="cls-1" x="110.42" y="1309.78" width="44.94" height="112.26" rx="22.47" transform="translate(645.21 123.61) rotate(30.7)"/><rect class="cls-1" x="189.44" y="1176.69" width="44.94" height="112.26" rx="22.47" transform="translate(588.33 64.62) rotate(30.7)"/><rect class="cls-1" x="268.46" y="1043.6" width="44.94" height="112.26" rx="22.47" transform="translate(531.46 5.63) rotate(30.7)"/><rect class="cls-1" x="347.48" y="910.52" width="44.94" height="112.26" rx="22.47" transform="translate(474.59 -53.37) rotate(30.7)"/><rect class="cls-1" x="426.49" y="777.43" width="44.94" height="112.26" rx="22.47" transform="translate(417.72 -112.36) rotate(30.7)"/><rect class="cls-1" x="308.11" y="1309.78" width="44.94" height="112.26" rx="22.47" transform="translate(672.91 22.68) rotate(30.7)"/><rect class="cls-1" x="387.13" y="1176.69" width="44.94" height="112.26" rx="22.47" transform="translate(616.04 -36.31) rotate(30.7)"/><rect class="cls-1" x="466.15" y="1043.6" width="44.94" height="112.26" rx="22.47" transform="translate(559.17 -95.3) rotate(30.7)"/><rect class="cls-1" x="545.17" y="910.52" width="44.94" height="112.26" rx="22.47" transform="translate(502.3 -154.3) rotate(30.7)"/><rect class="cls-1" x="624.19" y="777.43" width="44.94" height="112.26" rx="22.47" transform="translate(445.43 -213.29) rotate(30.7)"/><rect class="cls-1" x="505.81" y="1309.78" width="44.94" height="112.26" rx="22.47" transform="translate(700.62 -78.25) rotate(30.7)"/><rect class="cls-1" x="584.83" y="1176.69" width="44.94" height="112.26" rx="22.47" transform="translate(643.74 -137.24) rotate(30.7)"/><rect class="cls-1" x="663.85" y="1043.6" width="44.94" height="112.26" rx="22.47" transform="translate(586.87 -196.23) rotate(30.7)"/><rect class="cls-1" x="742.87" y="910.51" width="44.94" height="112.26" rx="22.47" transform="translate(530 -255.23) rotate(30.7)"/><rect class="cls-1" x="821.89" y="777.43" width="44.94" height="112.26" rx="22.47" transform="translate(473.13 -314.22) rotate(30.7)"/><rect class="cls-1" x="703.51" y="1309.77" width="44.94" height="112.26" rx="22.47" transform="translate(728.32 -179.18) rotate(30.7)"/><rect class="cls-1" x="782.53" y="1176.69" width="44.94" height="112.26" rx="22.47" transform="matrix(0.86, 0.51, -0.51, 0.86, 671.45, -238.17)"/><rect class="cls-1" x="861.55" y="1043.6" width="44.94" height="112.26" rx="22.47" transform="translate(614.58 -297.16) rotate(30.7)"/><rect class="cls-1" x="940.56" y="910.51" width="44.94" height="112.26" rx="22.47" transform="translate(557.71 -356.16) rotate(30.7)"/><rect class="cls-1" x="1019.58" y="777.43" width="44.94" height="112.26" rx="22.47" transform="translate(500.84 -415.15) rotate(30.7)"/><rect class="cls-1" x="901.2" y="1309.77" width="44.94" height="112.26" rx="22.47" transform="translate(756.03 -280.11) rotate(30.7)"/><rect class="cls-1" x="980.22" y="1176.69" width="44.94" height="112.26" rx="22.47" transform="translate(699.15 -339.1) rotate(30.7)"/><rect class="cls-1" x="1059.24" y="1043.6" width="44.94" height="112.26" rx="22.47" transform="translate(642.28 -398.1) rotate(30.7)"/><rect class="cls-1" x="1138.26" y="910.51" width="44.94" height="112.26" rx="22.47" transform="matrix(0.86, 0.51, -0.51, 0.86, 585.41, -457.09)"/><rect class="cls-1" x="1217.28" y="777.43" width="44.94" height="112.26" rx="22.47" transform="translate(528.54 -516.08) rotate(30.7)"/><rect class="cls-1" x="1098.9" y="1309.77" width="44.94" height="112.26" rx="22.47" transform="translate(783.73 -381.04) rotate(30.7)"/><rect class="cls-1" x="1177.92" y="1176.68" width="44.94" height="112.26" rx="22.47" transform="translate(726.86 -440.03) rotate(30.7)"/><rect class="cls-1" x="1256.94" y="1043.6" width="44.94" height="112.26" rx="22.47" transform="translate(669.99 -499.03) rotate(30.7)"/><rect class="cls-1" x="1335.96" y="910.51" width="44.94" height="112.26" rx="22.47" transform="translate(613.12 -558.02) rotate(30.7)"/><rect class="cls-1" x="1414.98" y="777.43" width="44.94" height="112.26" rx="22.47" transform="translate(556.25 -617.01) rotate(30.7)"/><rect class="cls-1" x="1296.6" y="1309.77" width="44.94" height="112.26" rx="22.47" transform="translate(811.44 -481.97) rotate(30.7)"/><rect class="cls-1" x="1375.62" y="1176.68" width="44.94" height="112.26" rx="22.47" transform="translate(754.56 -540.96) rotate(30.7)"/><rect class="cls-1" x="1454.63" y="1043.6" width="44.94" height="112.26" rx="22.47" transform="translate(697.69 -599.96) rotate(30.7)"/><rect class="cls-1" x="1533.65" y="910.51" width="44.94" height="112.26" rx="22.47" transform="translate(640.82 -658.95) rotate(30.7)"/><rect class="cls-1" x="1612.67" y="777.42" width="44.94" height="112.26" rx="22.47" transform="translate(583.95 -717.94) rotate(30.7)"/><rect class="cls-2" y="425.16" width="1701" height="567" rx="283.46"/><circle class="cls-2" cx="708.77" cy="425.2" r="425.2"/><circle class="cls-2" cx="1133.96" cy="425.2" r="283.46"/><circle class="cls-2" cx="708.77" cy="708.66" r="425.2"/><circle class="cls-2" cx="1133.96" cy="850.39" r="226.77"/></svg>