<svg xmlns="http://www.w3.org/2000/svg" xmlns:xlink="http://www.w3.org/1999/xlink" width="1920" height="1080" viewBox="0 0 1920 1080">
  <defs>
    <clipPath id="clip-Erreur_404">
      <rect width="1920" height="1080"/>
    </clipPath>
  </defs>
  <g id="Erreur_404" data-name="Erreur 404" clip-path="url(#clip-Erreur_404)">
    <rect width="1920" height="1080" fill="#fff"/>
    <rect id="Rectangle_4" data-name="Rectangle 4" width="1920" height="1080" fill="#10b5f3"/>
    <g id="Groupe_33" data-name="Groupe 33" transform="translate(2 10)">
      <g id="cloud_rain" transform="translate(276 287.878)">
        <rect id="Rectangle_26" data-name="Rectangle 26" width="15.895" height="39.705" rx="7.947" transform="translate(25.274 461.988) rotate(30.7)" fill="#00f8ff"/>
        <rect id="Rectangle_27" data-name="Rectangle 27" width="15.895" height="39.705" rx="7.947" transform="translate(53.221 414.917) rotate(30.7)" fill="#00f8ff"/>
        <rect id="Rectangle_28" data-name="Rectangle 28" width="15.895" height="39.705" rx="7.947" transform="translate(81.17 367.847) rotate(30.7)" fill="#00f8ff"/>
        <rect id="Rectangle_29" data-name="Rectangle 29" width="15.895" height="39.705" rx="7.947" transform="translate(109.118 320.776) rotate(30.7)" fill="#00f8ff"/>
        <rect id="Rectangle_30" data-name="Rectangle 30" width="15.895" height="39.705" rx="7.947" transform="translate(137.064 273.703) rotate(30.7)" fill="#00f8ff"/>
        <rect id="Rectangle_31" data-name="Rectangle 31" width="15.895" height="39.705" rx="7.947" transform="translate(95.193 461.987) rotate(30.7)" fill="#00f8ff"/>
        <rect id="Rectangle_32" data-name="Rectangle 32" width="15.895" height="39.705" rx="7.947" transform="translate(123.143 414.917) rotate(30.7)" fill="#00f8ff"/>
        <rect id="Rectangle_33" data-name="Rectangle 33" width="15.895" height="39.705" rx="7.947" transform="translate(151.092 367.846) rotate(30.7)" fill="#00f8ff"/>
        <rect id="Rectangle_34" data-name="Rectangle 34" width="15.895" height="39.705" rx="7.947" transform="translate(179.04 320.775) rotate(30.7)" fill="#00f8ff"/>
        <rect id="Rectangle_35" data-name="Rectangle 35" width="15.895" height="39.705" rx="7.947" transform="translate(206.99 273.705) rotate(30.7)" fill="#00f8ff"/>
        <rect id="Rectangle_36" data-name="Rectangle 36" width="15.895" height="39.705" rx="7.947" transform="translate(165.118 461.989) rotate(30.7)" fill="#00f8ff"/>
        <rect id="Rectangle_37" data-name="Rectangle 37" width="15.895" height="39.705" rx="7.947" transform="translate(193.064 414.918) rotate(30.7)" fill="#00f8ff"/>
        <rect id="Rectangle_38" data-name="Rectangle 38" width="15.895" height="39.705" rx="7.947" transform="translate(221.014 367.848) rotate(30.7)" fill="#00f8ff"/>
        <rect id="Rectangle_39" data-name="Rectangle 39" width="15.895" height="39.705" rx="7.947" transform="translate(248.963 320.774) rotate(30.7)" fill="#00f8ff"/>
        <rect id="Rectangle_40" data-name="Rectangle 40" width="15.895" height="39.705" rx="7.947" transform="translate(276.911 273.706) rotate(30.7)" fill="#00f8ff"/>
        <rect id="Rectangle_41" data-name="Rectangle 41" width="15.895" height="39.705" rx="7.947" transform="translate(235.042 461.987) rotate(30.7)" fill="#00f8ff"/>
        <rect id="Rectangle_42" data-name="Rectangle 42" width="15.895" height="39.705" rx="7.947" transform="translate(263.256 414.832) rotate(30.669)" fill="#00f8ff"/>
        <rect id="Rectangle_43" data-name="Rectangle 43" width="15.895" height="39.705" rx="7.947" transform="translate(290.939 367.849) rotate(30.7)" fill="#00f8ff"/>
        <rect id="Rectangle_44" data-name="Rectangle 44" width="15.895" height="39.705" rx="7.947" transform="translate(318.886 320.773) rotate(30.7)" fill="#00f8ff"/>
        <rect id="Rectangle_45" data-name="Rectangle 45" width="15.895" height="39.705" rx="7.947" transform="translate(346.833 273.706) rotate(30.7)" fill="#00f8ff"/>
        <rect id="Rectangle_46" data-name="Rectangle 46" width="15.895" height="39.705" rx="7.947" transform="translate(304.964 461.987) rotate(30.7)" fill="#00f8ff"/>
        <rect id="Rectangle_47" data-name="Rectangle 47" width="15.895" height="39.705" rx="7.947" transform="translate(332.908 414.919) rotate(30.7)" fill="#00f8ff"/>
        <rect id="Rectangle_48" data-name="Rectangle 48" width="15.895" height="39.705" rx="7.947" transform="translate(360.858 367.845) rotate(30.7)" fill="#00f8ff"/>
        <rect id="Rectangle_49" data-name="Rectangle 49" width="15.895" height="39.705" rx="7.947" transform="translate(389.041 320.605) rotate(30.669)" fill="#00f8ff"/>
        <rect id="Rectangle_50" data-name="Rectangle 50" width="15.895" height="39.705" rx="7.947" transform="translate(416.755 273.707) rotate(30.7)" fill="#00f8ff"/>
        <rect id="Rectangle_51" data-name="Rectangle 51" width="15.895" height="39.705" rx="7.947" transform="translate(374.885 461.988) rotate(30.7)" fill="#00f8ff"/>
        <rect id="Rectangle_52" data-name="Rectangle 52" width="15.895" height="39.705" rx="7.947" transform="translate(402.835 414.917) rotate(30.7)" fill="#00f8ff"/>
        <rect id="Rectangle_53" data-name="Rectangle 53" width="15.895" height="39.705" rx="7.947" transform="translate(430.783 367.846) rotate(30.7)" fill="#00f8ff"/>
        <rect id="Rectangle_54" data-name="Rectangle 54" width="15.895" height="39.705" rx="7.947" transform="translate(458.732 320.776) rotate(30.7)" fill="#00f8ff"/>
        <rect id="Rectangle_55" data-name="Rectangle 55" width="15.895" height="39.705" rx="7.947" transform="translate(486.68 273.708) rotate(30.7)" fill="#00f8ff"/>
        <rect id="Rectangle_56" data-name="Rectangle 56" width="15.895" height="39.705" rx="7.947" transform="translate(444.81 461.989) rotate(30.7)" fill="#00f8ff"/>
        <rect id="Rectangle_57" data-name="Rectangle 57" width="15.895" height="39.705" rx="7.947" transform="translate(472.757 414.919) rotate(30.7)" fill="#00f8ff"/>
        <rect id="Rectangle_58" data-name="Rectangle 58" width="15.895" height="39.705" rx="7.947" transform="translate(500.701 367.846) rotate(30.7)" fill="#00f8ff"/>
        <rect id="Rectangle_59" data-name="Rectangle 59" width="15.895" height="39.705" rx="7.947" transform="translate(528.651 320.775) rotate(30.7)" fill="#00f8ff"/>
        <rect id="Rectangle_60" data-name="Rectangle 60" width="15.895" height="39.705" rx="7.947" transform="translate(556.6 273.705) rotate(30.7)" fill="#00f8ff"/>
        <rect id="Rectangle_61" data-name="Rectangle 61" width="601.625" height="200.542" rx="100.271" transform="translate(0 150.374)" fill="#fff"/>
        <circle id="Ellipse_5" data-name="Ellipse 5" cx="150.389" cy="150.389" r="150.389" transform="translate(100.296 0)" fill="#fff"/>
        <circle id="Ellipse_6" data-name="Ellipse 6" cx="100.257" cy="100.257" r="100.257" transform="translate(300.813 50.132)" fill="#fff"/>
        <circle id="Ellipse_7" data-name="Ellipse 7" cx="150.389" cy="150.389" r="150.389" transform="translate(100.296 100.257)" fill="#fff"/>
        <circle id="Ellipse_8" data-name="Ellipse 8" cx="80.206" cy="80.206" r="80.206" transform="translate(320.863 220.568)" fill="#fff"/>
      </g>
      <text id="Erreur_404-2" data-name="Erreur 404" transform="translate(575 531)" fill="#707070" font-size="90" font-family="CreamCake, Cream Cake"><tspan x="-138.555" y="0">Erreur 404</tspan></text>
    </g>
    <text id="Cette_page_est_introuvable" data-name="Cette page est introuvable" transform="translate(1235 533)" fill="#fff" font-size="80" font-family="CreamCake, Cream Cake"><tspan x="-275.4" y="0">Cette page est introuvable</tspan></text>
    <g id="Groupe_34" data-name="Groupe 34" transform="translate(-162 -16)">
      <rect id="Rectangle_62" data-name="Rectangle 62" width="228" height="76" rx="38" transform="translate(1122 616)" fill="#fff"/>
      <text id="Accueil" transform="translate(1235 673)" fill="#707070" font-size="66" font-family="CreamCake, Cream Cake"><tspan x="-71.28" y="0">Accueil</tspan></text>
    </g>
  </g>
</svg>
