<svg xmlns="http://www.w3.org/2000/svg" xmlns:xlink="http://www.w3.org/1999/xlink" width="1920" height="1080" viewBox="0 0 1920 1080">
  <defs>
    <filter id="Tracé_2" x="528" y="809" width="259" height="102" filterUnits="userSpaceOnUse">
      <feOffset dy="3" input="SourceAlpha"/>
      <feGaussianBlur stdDeviation="3" result="blur"/>
      <feFlood flood-opacity="0.161"/>
      <feComposite operator="in" in2="blur"/>
      <feComposite in="SourceGraphic"/>
    </filter>
    <clipPath id="clip-Settings">
      <rect width="1920" height="1080"/>
    </clipPath>
  </defs>
  <g id="Settings" clip-path="url(#clip-Settings)">
    <rect width="1920" height="1080" fill="#fff"/>
    <g id="Groupe_5" data-name="Groupe 5">
      <rect id="Rectangle_8" data-name="Rectangle 8" width="1920" height="100" fill="#10b5f3"/>
      <text id="BackMyPic" transform="translate(288 70)" fill="#fff" font-size="70" font-family="CreamCake, Cream Cake"><tspan x="-129.395" y="0">BackMyPic</tspan></text>
      <g id="cloud" transform="translate(40.368 18.914)">
        <rect id="Rectangle_5" data-name="Rectangle 5" width="93.313" height="31.104" rx="15.552" transform="translate(0 23.321)" fill="#fff"/>
        <ellipse id="Ellipse_1" data-name="Ellipse 1" cx="23.275" cy="23.359" rx="23.275" ry="23.359" transform="translate(15.635 -0.003)" fill="#fff"/>
        <ellipse id="Ellipse_2" data-name="Ellipse 2" cx="15.55" cy="15.55" rx="15.55" ry="15.55" transform="translate(46.656 7.773)" fill="#fff"/>
        <circle id="Ellipse_3" data-name="Ellipse 3" cx="23.275" cy="23.275" r="23.275" transform="translate(15.635 15.626)" fill="#fff"/>
        <circle id="Ellipse_4" data-name="Ellipse 4" cx="12.436" cy="12.436" r="12.436" transform="translate(49.749 34.279)" fill="#fff"/>
      </g>
    </g>
    <text id="Album" transform="translate(1393 61)" fill="#fff" font-size="40" font-family="CreamCake, Cream Cake"><tspan x="-39.58" y="0">Album</tspan></text>
    <text id="Bibliothèque" transform="translate(1603 61)" fill="#fff" font-size="40" font-family="CreamCake, Cream Cake"><tspan x="-70.18" y="0">Bibliothèque</tspan></text>
    <rect id="Rectangle_18" data-name="Rectangle 18" width="126" height="46" rx="23" transform="translate(1753 27)" fill="#fff"/>
    <text id="Compte" transform="translate(1815 61)" fill="#10b5f3" font-size="40" font-family="CreamCake, Cream Cake"><tspan x="-41.84" y="0">Compte</tspan></text>
    <g id="Groupe_19" data-name="Groupe 19" transform="translate(100)">
      <text id="_2021_-_BackMyPic_Team" data-name="© 2021 - BackMyPic Team" transform="translate(678 1044)" fill="#707070" font-size="24" font-family="ArialMT, Arial"><tspan x="-141.34" y="0">© 2021 - BackMyPic Team</tspan></text>
      <text id="v0.6.0" transform="translate(960 1044)" fill="#707070" font-size="24" font-family="ArialMT, Arial"><tspan x="-32.689" y="0">v0.6.0</tspan></text>
      <text id="Contact" transform="translate(1142 1044)" fill="#707070" font-size="24" font-family="ArialMT, Arial"><tspan x="-41.355" y="0">Contact</tspan></text>
    </g>
    <g id="Groupe_4" data-name="Groupe 4" transform="translate(1142 815)">
      <path id="Tracé_2-2" data-name="Tracé 2" d="M24.158,0H216.842C230.184,0,241,18.8,241,42s-10.816,42-24.158,42H24.158C10.816,84,0,65.2,0,42S10.816,0,24.158,0Z" fill="#10b5f3"/>
      <text id="Enregistrer" transform="translate(120 56)" fill="#fff" font-size="50" font-family="CreamCake, Cream Cake"><tspan x="-78.225" y="0">Enregistrer</tspan></text>
    </g>
    <g id="Groupe_4-2" data-name="Groupe 4" transform="translate(537 815)">
      <g transform="matrix(1, 0, 0, 1, -537, -815)" filter="url(#Tracé_2)">
        <path id="Tracé_2-3" data-name="Tracé 2" d="M24.158,0H216.842C230.184,0,241,18.8,241,42s-10.816,42-24.158,42H24.158C10.816,84,0,65.2,0,42S10.816,0,24.158,0Z" transform="translate(537 815)" fill="#e21a1a"/>
      </g>
      <text id="Supprimer" transform="translate(119.971 56)" fill="#fff" font-size="50" font-family="CreamCake, Cream Cake"><tspan x="-73.05" y="0">Supprimer</tspan></text>
    </g>
    <g id="Groupe_4-3" data-name="Groupe 4" transform="translate(840 815)">
      <path id="Tracé_2-4" data-name="Tracé 2" d="M24.158,0H216.842C230.184,0,241,18.8,241,42s-10.816,42-24.158,42H24.158C10.816,84,0,65.2,0,42S10.816,0,24.158,0Z" fill="#10b5f3"/>
      <text id="Deconnecter" transform="translate(120 56)" fill="#fff" font-size="50" font-family="CreamCake, Cream Cake"><tspan x="-87.325" y="0">Deconnecter</tspan></text>
    </g>
    <g id="Groupe_54" data-name="Groupe 54" transform="translate(537 466)">
      <g id="Rectangle_9" data-name="Rectangle 9" fill="#fff" stroke="#707070" stroke-width="1">
        <rect width="846" height="49" rx="24.5" stroke="none"/>
        <rect x="0.5" y="0.5" width="845" height="48" rx="24" fill="none"/>
      </g>
      <text id="Nouveau_nom_d_utilisateur" data-name="Nouveau nom d&apos;utilisateur" transform="translate(423 36)" fill="#707070" font-size="40" font-family="CreamCake, Cream Cake"><tspan x="-142.46" y="0">Nouveau nom d&apos;utilisateur</tspan></text>
    </g>
    <g id="Groupe_55" data-name="Groupe 55" transform="translate(537 575)">
      <g id="Rectangle_9-2" data-name="Rectangle 9" fill="#fff" stroke="#707070" stroke-width="1">
        <rect width="846" height="49" rx="24.5" stroke="none"/>
        <rect x="0.5" y="0.5" width="845" height="48" rx="24" fill="none"/>
      </g>
      <text id="Nouveau_mot_de_passe" data-name="Nouveau mot de passe" transform="translate(423 36)" fill="#707070" font-size="40" font-family="CreamCake, Cream Cake"><tspan x="-119.94" y="0">Nouveau mot de passe</tspan></text>
    </g>
    <text id="Compte-2" data-name="Compte" transform="translate(959 263)" fill="#707070" font-size="70" font-family="CreamCake, Cream Cake"><tspan x="-73.22" y="0">Compte</tspan></text>
    <line id="Ligne_2" data-name="Ligne 2" x2="853" transform="translate(0 243)" fill="none" stroke="#707070" stroke-width="1"/>
    <line id="Ligne_3" data-name="Ligne 3" x2="853" transform="translate(1067 243)" fill="none" stroke="#707070" stroke-width="1"/>
    <text id="Tu_peux_changer_tes_informations_de_connexion_ici" data-name="Tu peux changer tes informations de connexion ici" transform="translate(960 309)" fill="#707070" font-size="40" font-family="CreamCake, Cream Cake" opacity="0.7"><tspan x="-268.02" y="0">Tu peux changer tes informations de connexion ici</tspan></text>
    <text id="Compte-3" data-name="Compte" transform="translate(959 263)" fill="#707070" font-size="70" font-family="CreamCake, Cream Cake"><tspan x="-73.22" y="0">Compte</tspan></text>
    <line id="Ligne_6" data-name="Ligne 6" x2="853" transform="translate(0 243)" fill="none" stroke="#707070" stroke-width="1"/>
    <line id="Ligne_7" data-name="Ligne 7" x2="853" transform="translate(1067 243)" fill="none" stroke="#707070" stroke-width="1"/>
  </g>
</svg>
